<svg width="210" height="126" viewBox="0 0 210 126" fill="none" xmlns="http://www.w3.org/2000/svg">
<path d="M59.1624 45.6329C59.1624 48.2192 59.4497 50.2882 59.9095 51.8399C60.4842 53.3917 61.1739 55.0584 62.1509 56.84C62.4958 57.4147 62.6107 57.932 62.6107 58.4492C62.6107 59.1389 62.2084 59.8286 61.2888 60.5182L56.9209 63.4493C56.2887 63.8516 55.6566 64.0815 55.0818 64.0815C54.3922 64.0815 53.7025 63.7367 53.0128 63.1045C52.0358 62.07 51.1737 60.9205 50.4841 59.8286C49.7944 58.6217 49.1047 57.2998 48.3001 55.6906C42.8403 62.1275 36.0011 65.3459 27.7825 65.3459C21.9204 65.3459 17.2651 63.6792 13.8168 60.3458C10.4259 57.0124 8.64429 52.5296 8.64429 46.9548C8.64429 41.0352 10.7133 36.2075 14.9662 32.5867C19.2192 28.966 24.8514 27.1269 32.0355 27.1269C34.3918 27.1269 36.8631 27.3568 39.4494 27.7016C42.0356 28.0464 44.6794 28.6212 47.4955 29.2534V24.1383C47.4955 18.8509 46.4035 15.1152 44.2196 12.9887C41.9782 10.8048 38.2425 9.77028 32.8401 9.77028C30.4263 9.77028 27.8975 10.0576 25.3112 10.6898C22.725 11.322 20.1962 12.0692 17.7824 13.0462C16.6904 13.506 15.8283 13.7933 15.3685 13.9657C14.9088 14.0807 14.5065 14.1956 14.2766 14.1956C13.2995 14.1956 12.8398 13.506 12.8398 12.0117V8.62083C12.8398 7.52886 12.9547 6.66678 13.2995 6.207C13.6444 5.74722 14.2766 5.22997 15.2536 4.7702C17.6674 3.50581 20.5985 2.47131 24.0468 1.60922C27.4377 0.689668 31.1159 0.287361 34.9091 0.287361C43.1851 0.287361 49.2771 2.18395 53.1852 5.91964C57.0359 9.7128 58.9899 15.4025 58.9899 23.1038V45.6904H59.1624V45.6329ZM30.8286 56.2653C33.1274 56.2653 35.4838 55.863 38.0126 55.0009C40.5414 54.1388 42.7828 52.6445 44.6219 50.5181C45.7139 49.1962 46.5759 47.7019 46.9782 46.0352C47.3806 44.3685 47.6679 42.357 47.6679 39.9432V37.0121C45.6564 36.5523 43.4724 36.0925 41.231 35.8052C38.9896 35.5178 36.8631 35.4029 34.6792 35.4029C30.024 35.4029 26.5756 36.3224 24.2767 38.219C21.9778 40.1156 20.8859 42.7593 20.8859 46.2651C20.8859 49.541 21.748 52.0124 23.4721 53.679C25.1388 55.4032 27.6101 56.2653 30.8286 56.2653ZM86.864 63.7941C85.5996 63.7941 84.795 63.5643 84.2202 63.1045C83.6455 62.7022 83.1857 61.7252 82.7834 60.4033L66.4039 6.49436C66.0016 5.11503 65.7717 4.19548 65.7717 3.67823C65.7717 2.58625 66.3464 1.95406 67.4384 1.95406H74.2775C75.5994 1.95406 76.519 2.18395 76.9787 2.64372C77.5535 3.04603 77.9558 4.02306 78.3581 5.34492L90.0824 51.5526L100.945 5.34492C101.289 3.96558 101.692 3.04603 102.267 2.64372C102.841 2.24142 103.818 1.95406 105.083 1.95406H110.657C111.979 1.95406 112.899 2.18395 113.474 2.64372C114.048 3.04603 114.508 4.02306 114.795 5.34492L125.83 52.0698L137.899 5.34492C138.302 3.96558 138.819 3.04603 139.279 2.64372C139.853 2.24142 140.715 1.95406 141.98 1.95406H148.474C149.566 1.95406 150.198 2.52878 150.198 3.67823C150.198 4.02306 150.141 4.36789 150.083 4.7702C150.026 5.1725 149.854 5.74722 149.624 6.49436L132.784 60.4033C132.382 61.7826 131.865 62.7022 131.347 63.1045C130.83 63.5068 129.911 63.7941 128.704 63.7941H122.727C121.405 63.7941 120.485 63.5643 119.91 63.1045C119.336 62.6447 118.876 61.7252 118.589 60.2883L107.784 15.2876L97.0366 60.2309C96.6917 61.6102 96.2894 62.5298 95.7147 63.047C95.14 63.5068 94.1629 63.7367 92.8986 63.7367H86.864V63.7941ZM176.463 65.6907C172.842 65.6907 169.222 65.2884 165.716 64.4263C162.21 63.5643 159.509 62.7022 157.67 61.6102C156.578 60.978 155.773 60.2883 155.486 59.6562C155.198 59.024 155.083 58.3343 155.083 57.7021V54.1388C155.083 52.702 155.658 51.9549 156.693 51.9549C157.095 51.9549 157.555 52.0123 157.957 52.1848C158.359 52.2997 158.992 52.5871 159.681 52.8744C162.038 53.9089 164.624 54.771 167.383 55.2883C170.199 55.863 172.9 56.1503 175.659 56.1503C180.026 56.1503 183.475 55.4032 185.831 53.8515C188.187 52.2997 189.452 50.0583 189.452 47.2421C189.452 45.2881 188.82 43.6789 187.555 42.357C186.291 41.0352 183.935 39.8282 180.486 38.7363L170.371 35.5753C165.256 33.9661 161.52 31.6097 159.221 28.4487C156.923 25.4027 155.716 21.9544 155.716 18.3336C155.716 15.4026 156.348 12.8163 157.612 10.5749C158.877 8.33348 160.543 6.37942 162.612 4.82767C164.681 3.21845 167.095 2.01153 169.854 1.20692C172.613 0.402309 175.601 0 178.647 0C180.199 0 181.808 0.0574722 183.302 0.287361C184.912 0.51725 186.348 0.74714 187.843 1.0345C189.222 1.37933 190.544 1.72416 191.808 2.12647C193.073 2.52878 194.05 2.98856 194.739 3.39087C195.716 3.96559 196.406 4.48284 196.808 5.11503C197.211 5.68975 197.441 6.43689 197.441 7.41392V10.6898C197.441 12.1266 196.866 12.9312 195.831 12.9312C195.257 12.9312 194.394 12.6439 193.188 12.0692C189.222 10.2301 184.739 9.36797 179.797 9.36797C175.831 9.36797 172.67 10.0002 170.544 11.322C168.417 12.6439 167.268 14.6554 167.268 17.529C167.268 19.4831 167.957 21.1498 169.337 22.4716C170.716 23.7935 173.302 25.1154 177.038 26.3223L186.923 29.4832C191.923 31.0925 195.601 33.3339 197.728 36.2075C199.912 39.0811 200.946 42.357 200.946 45.9778C200.946 48.9663 200.314 51.725 199.107 54.0813C197.843 56.4377 196.176 58.5642 193.992 60.2309C191.808 61.955 189.222 63.2194 186.233 64.139C183.302 65.1735 180.026 65.6907 176.463 65.6907Z" fill="#252F3E"/>
<path d="M189.682 99.5993C166.75 116.554 133.359 125.577 104.68 125.577C64.5073 125.577 28.2998 110.691 0.943014 86.0359C-1.24093 84.0818 0.713125 81.4381 3.29937 82.9899C32.8976 100.174 69.3924 110.577 107.094 110.577C132.554 110.577 160.543 105.289 186.291 94.3694C190.142 92.5303 193.417 96.7832 189.682 99.5993Z" fill="#FF9900"/>
<path d="M199.222 88.6795C196.291 84.8864 179.854 86.8404 172.382 87.76C170.141 88.0473 169.796 86.0933 171.808 84.599C184.911 75.4035 206.463 78.0472 208.992 81.0932C211.521 84.2542 208.303 105.806 196.004 116.094C194.107 117.703 192.325 116.841 193.13 114.772C195.946 107.933 202.153 92.4152 199.222 88.6795Z" fill="#FF9900"/>
</svg>
