<svg width="96" height="40" viewBox="0 0 96 40" fill="none" xmlns="http://www.w3.org/2000/svg">
<path d="M18.8024 36.4087H0.222168V39.063H18.8024V36.4087Z" fill="black"/>
<path d="M18.8024 31.3413H0.222168V33.9956H18.8024V31.3413Z" fill="black"/>
<path d="M13.4937 26.2739H5.53076V28.9283H13.4937V26.2739Z" fill="black"/>
<path d="M13.4937 21.2065H5.53076V23.8609H13.4937V21.2065Z" fill="black"/>
<path d="M13.4937 16.1392H5.53076V18.7935H13.4937V16.1392Z" fill="black"/>
<path d="M13.4937 11.072H5.53076V13.7263H13.4937V11.072Z" fill="black"/>
<path d="M18.8024 6.00464H0.222168V8.65896H18.8024V6.00464Z" fill="black"/>
<path d="M18.8024 0.937256H0.222168V3.59158H18.8024V0.937256Z" fill="black"/>
<path d="M21.4568 33.9956H49.7777C50.2582 33.1662 50.6177 32.2724 50.8455 31.3413H21.4568V33.9956Z" fill="black"/>
<path d="M47.5607 21.2065H26.7654V23.8608H49.7748C49.1935 22.8563 48.4447 21.9586 47.5607 21.2065Z" fill="black"/>
<path d="M26.7654 16.1392V18.7936H47.5607C48.4447 18.0416 49.1936 17.1439 49.7749 16.1393L26.7654 16.1392Z" fill="black"/>
<path d="M49.7777 6.00464H21.4568V8.6589H50.8455C50.6177 7.72783 50.2581 6.83405 49.7777 6.00464Z" fill="black"/>
<path d="M41.0022 0.937265H21.4568V3.59156H47.8391C45.9734 1.88116 43.5333 0.933846 41.0022 0.937265Z" fill="black"/>
<path d="M34.7284 11.072H26.7654V13.7263H34.7284V11.072Z" fill="black"/>
<path d="M42.2087 13.7263H50.7819C51.0171 12.8612 51.1365 11.9686 51.1369 11.072H42.2087V13.7263Z" fill="black"/>
<path d="M34.7284 26.2739H26.7654V28.9283H34.7284V26.2739Z" fill="black"/>
<path d="M42.2087 26.2739V28.9283H51.1369C51.1365 28.0317 51.0171 27.1391 50.7819 26.2739H42.2087Z" fill="black"/>
<path d="M21.4568 39.0365L41.0022 39.0627C43.534 39.0697 45.9753 38.1219 47.8392 36.4084H21.4569L21.4568 39.0365Z" fill="black"/>
<path d="M74.5391 39.0628L75.466 36.4084H73.6206L74.5391 39.0628Z" fill="black"/>
<path d="M72.7732 33.9957H76.313L77.2446 31.3413H71.8416L72.7732 33.9957Z" fill="black"/>
<path d="M70.9945 28.9283H78.0919L79.0238 26.2739H70.0625L70.9945 28.9283Z" fill="black"/>
<path d="M69.2154 23.8609H79.871L80.8027 21.2065H68.2837L69.2154 23.8609Z" fill="black"/>
<path d="M58.6174 13.7264H72.9579L72.0349 11.072H58.6174V13.7264Z" fill="black"/>
<path d="M77.8906 8.65875H95.7777V6.00439H78.8136L77.8906 8.65875Z" fill="black"/>
<path d="M80.5758 0.937256L79.6528 3.59161H95.7778V0.937256H80.5758Z" fill="black"/>
<path d="M66.5802 36.4087H53.3086V39.063H66.5802V36.4087Z" fill="black"/>
<path d="M66.5802 31.3413H53.3086V33.9956H66.5802V31.3413Z" fill="black"/>
<path d="M66.5802 26.2739H58.6172V28.9283H66.5802V26.2739Z" fill="black"/>
<path d="M66.5802 21.2065H58.6172V23.8609H66.5802V21.2065Z" fill="black"/>
<path d="M90.4689 11.072H77.0514L76.1284 13.7264H90.4689V11.072Z" fill="black"/>
<path d="M82.5063 18.7938H90.4691V16.1394H82.5063H75.2892L74.5433 18.2849L73.797 16.1394H66.5802H58.6174V18.7938H66.5802V16.3544L67.4366 18.7938H81.6499L82.5063 16.3547V18.7938Z" fill="black"/>
<path d="M90.4691 21.2065H82.5061V23.8609H90.4691V21.2065Z" fill="black"/>
<path d="M90.4691 26.2739H82.5061V28.9283H90.4691V26.2739Z" fill="black"/>
<path d="M95.7777 31.3413H82.5061V33.9956H95.7777V31.3413Z" fill="black"/>
<path d="M95.7777 36.4087H82.5061V39.063H95.7777V36.4087Z" fill="black"/>
<path d="M71.1957 8.65875L70.2727 6.00439H53.3086V8.65875H71.1957Z" fill="black"/>
<path d="M69.4336 3.59161L68.5106 0.937256H53.3086V3.59161H69.4336Z" fill="black"/>
</svg>
